<?xml version="1.0" standalone="no"?>
<!DOCTYPE svg PUBLIC "-//W3C//DTD SVG 20010904//EN"
        "http://www.w3.org/TR/2001/REC-SVG-20010904/DTD/svg10.dtd">
<svg version="1.0" xmlns="http://www.w3.org/2000/svg"
     width="307.000000pt" height="313.000000pt" viewBox="0 0 307.000000 313.000000"
     preserveAspectRatio="xMidYMid meet">

    <g transform="translate(0.000000,313.000000) scale(0.100000,-0.100000)"
       fill="#000000" stroke="none">
        <path d="M1345 3024 c-307 -37 -610 -182 -834 -398 -151 -146 -230 -251 -308
-407 -60 -122 -98 -228 -128 -367 l-27 -120 64 -101 c94 -152 163 -237 258
-317 47 -39 86 -71 87 -70 1 1 -2 19 -7 41 -13 56 -13 346 0 436 49 335 200
640 435 874 60 61 142 134 180 163 145 107 365 213 539 258 l91 23 -120 -1
c-66 0 -169 -6 -230 -14z"/>
        <path d="M2220 2873 c180 -220 240 -309 307 -458 91 -202 133 -386 140 -611 9
-264 -33 -462 -152 -729 -150 -337 -505 -657 -872 -788 -217 -78 -479 -110
-668 -83 -55 8 -101 13 -103 12 -4 -5 174 -81 233 -100 199 -63 474 -83 681
-47 422 72 783 311 1020 677 169 262 243 537 231 858 -15 368 -138 670 -391
958 -100 113 -280 252 -417 324 l-34 17 25 -30z"/>
        <path d="M55 1410 c18 -179 66 -360 136 -509 82 -176 266 -412 348 -447 166
-72 315 -103 531 -111 182 -6 324 14 497 72 273 91 542 287 703 512 52 74 190
332 190 357 0 5 -31 -22 -68 -58 -112 -108 -222 -186 -370 -260 -357 -179
-797 -211 -1177 -85 -306 102 -556 280 -745 529 -18 25 -38 50 -42 55 -6 6 -7
-17 -3 -55z"/>
    </g>
</svg>
