<?xml version="1.0" standalone="no"?>
<!DOCTYPE svg PUBLIC "-//W3C//DTD SVG 20010904//EN"
        "http://www.w3.org/TR/2001/REC-SVG-20010904/DTD/svg10.dtd">
<svg version="1.0" xmlns="http://www.w3.org/2000/svg"
     width="1469.000000pt" height="418.000000pt" viewBox="0 0 1469.000000 418.000000"
     preserveAspectRatio="xMidYMid meet">

    <g transform="translate(0.000000,418.000000) scale(0.100000,-0.100000)"
       fill="#000000" stroke="none">
        <path d="M2325 3554 c-307 -37 -610 -182 -834 -398 -151 -146 -230 -251 -308
-407 -60 -122 -98 -228 -128 -367 l-27 -120 64 -101 c94 -152 163 -237 258
-317 47 -39 86 -71 87 -70 1 1 -2 19 -7 41 -13 56 -13 346 0 436 49 335 200
640 435 874 60 61 142 134 180 163 145 107 365 213 539 258 l91 23 -120 -1
c-66 0 -169 -6 -230 -14z"/>
        <path d="M3200 3403 c180 -220 240 -309 307 -458 91 -202 133 -386 140 -611 9
-264 -33 -462 -152 -729 -150 -337 -505 -657 -872 -788 -217 -78 -479 -110
-668 -83 -55 8 -101 13 -103 12 -4 -5 174 -81 233 -100 199 -63 474 -83 681
-47 422 72 783 311 1020 677 169 262 243 537 231 858 -15 368 -138 670 -391
958 -100 113 -280 252 -417 324 l-34 17 25 -30z"/>
        <path d="M4700 3113 c-8 -3 -18 -11 -22 -17 -9 -13 -11 -2037 -2 -2060 5 -13
27 -16 135 -16 l129 0 10 26 c7 17 9 387 8 1035 -2 810 -6 1011 -16 1021 -14
14 -213 23 -242 11z"/>
        <path d="M5362 3110 l-22 -9 2 -1038 3 -1038 639 -3 c463 -1 643 1 652 9 18
15 20 239 2 257 -9 9 -136 12 -510 12 l-498 0 0 893 c0 543 -4 898 -10 907 -7
12 -34 16 -122 17 -62 2 -123 -2 -136 -7z"/>
        <path d="M9186 3107 c-19 -14 -19 -19 -8 -93 9 -57 12 -340 12 -1025 0 -868 1
-948 17 -960 22 -19 236 -20 255 -1 10 10 14 87 18 323 l5 309 320 -320 320
-320 130 0 c209 0 208 13 -2 220 -87 85 -229 224 -315 309 l-158 154 265 268
c280 283 292 299 243 333 -34 24 -233 22 -270 -2 -14 -9 -140 -138 -280 -286
l-253 -268 -5 648 c-5 688 -5 680 -53 705 -35 20 -218 24 -241 6z"/>
        <path d="M7056 3087 c-104 -59 -99 -220 8 -271 105 -50 226 24 226 139 -1 120
-129 192 -234 132z"/>
        <path d="M8190 2314 c-67 -18 -159 -61 -220 -102 l-45 -31 -6 27 c-8 36 -23
63 -49 87 -18 17 -36 20 -117 20 -82 0 -96 -3 -109 -19 -12 -17 -14 -118 -14
-629 0 -400 4 -615 10 -628 10 -17 22 -19 133 -19 82 0 127 4 135 12 9 9 12
121 12 443 l0 430 39 32 c110 92 216 133 340 133 42 0 93 -5 113 -10 53 -15
119 -68 148 -120 l25 -45 5 -405 c5 -423 7 -437 50 -460 21 -11 237 -14 243
-2 2 4 1 207 -3 452 -7 416 -8 449 -28 510 -68 210 -270 341 -521 339 -47 0
-111 -7 -141 -15z"/>
        <path d="M11085 2320 c-195 -39 -361 -170 -449 -353 -53 -111 -69 -180 -68
-309 1 -254 134 -472 354 -584 184 -93 455 -90 643 9 66 35 205 163 205 189 0
23 -77 118 -96 118 -8 0 -45 -18 -81 -40 -112 -67 -179 -85 -323 -85 -107 0
-133 4 -182 23 -77 31 -150 98 -187 174 -54 107 -95 97 412 100 491 3 477 1
514 71 37 67 14 233 -49 364 -43 88 -167 215 -255 261 -120 63 -304 89 -438
62z m268 -278 c92 -41 167 -133 191 -234 l6 -28 -340 0 -340 0 0 23 c0 37 46
123 89 166 44 44 100 76 158 91 59 15 184 5 236 -18z"/>
        <path d="M7030 2314 c-40 -16 -40 -17 -40 -621 0 -622 1 -637 48 -662 12 -6
68 -11 125 -11 86 0 106 3 111 16 3 9 6 294 6 634 0 562 -1 619 -17 631 -17
14 -203 24 -233 13z"/>
        <path d="M12140 2314 c-40 -16 -40 -16 -40 -647 0 -400 4 -615 10 -628 10 -17
22 -19 133 -19 82 0 127 4 135 12 9 9 12 117 12 424 l0 412 33 48 c89 132 248
177 407 114 30 -12 63 -19 74 -16 28 8 136 167 136 201 0 22 -9 30 -62 55 -85
40 -155 53 -267 48 -113 -6 -182 -29 -262 -89 l-54 -40 -8 34 c-5 19 -22 47
-38 63 -26 25 -37 28 -111 31 -46 1 -90 0 -98 -3z"/>
        <path d="M1035 1940 c18 -179 66 -360 136 -509 82 -176 266 -412 348 -447 166
-72 315 -103 531 -111 182 -6 324 14 497 72 273 91 542 287 703 512 52 74 190
332 190 357 0 5 -31 -22 -68 -58 -112 -108 -222 -186 -370 -260 -357 -179
-797 -211 -1177 -85 -306 102 -556 280 -745 529 -18 25 -38 50 -42 55 -6 6 -7
-17 -3 -55z"/>
    </g>
</svg>
